<svg viewBox="167.3525377229081 0 1344.3072702331963 1252.4933920704846" xmlns:xlink="http://www.w3.org/1999/xlink" version="1.1" xmlns="http://www.w3.org/2000/svg" style="max-height: 500px" width="1344.3072702331963" height="1252.4933920704846"><g transform="matrix(1,0,0,1,-1.2121212121212466,0.504858299595071)"><svg xmlns:xlink="http://www.w3.org/1999/xlink" xmlns="http://www.w3.org/2000/svg" width="2000" height="1247" preserveAspectRatio="xMidYMid meet" data-background-color="#ffffff" viewBox="0 0 396 247"><g transform="matrix(1,0,0,1,0.2400000000000091,-0.09999999999999432)" id="tight-bounds"><svg width="395.52" height="247.2" viewBox="0 0 395.52 247.2"><g><svg/></g><g><svg width="395.52" height="247.2" viewBox="0 0 395.52 247.2"><g transform="matrix(1,0,0,1,98.45976,47.215199999999996)"><svg width="198.60047999999998" height="152.7696" viewBox="0 0 198.60047999999998 152.7696"><g><svg width="198.60047999999998" height="152.7696" viewBox="0 0 198.60047999999998 152.7696"><g><svg width="198.60047999999998" height="152.7696" viewBox="0 0 198.60047999999998 152.7696"><g id="textblocktransform"><svg id="textblock" width="198.60047999999998" height="152.7696" viewBox="0 0 198.60047999999998 152.7696"><g><svg width="198.60047999999998" height="152.7696" viewBox="0 0 198.60047999999998 152.7696"><g transform="matrix(1,0,0,1,0,0)"><svg data-palette-color="#000000" height="152.7696" viewBox="1.7999999999999998 -28 36.400000000000006 28" width="198.60047999999998"><path id="text-0" data-fill-palette-color="primary" class="wordmark-text-0" fill="#ffffff" transform="matrix(1,0,0,1,0,0)" opacity="1" d="M16.5-4L18-4Q18.2-3.2 18.2-2L18.2-2Q18.2-0.85 18 0L18 0 14 0Q13.8-0.85 13.8-2L13.8-2Q13.8-3.2 14-4L14-4 12.5-4Q12.3-4.85 12.3-6L12.3-6Q12.3-7.2 12.5-8L12.5-8 11-8Q10.8-8.85 10.8-10L10.8-10Q10.8-11.2 11-12L11-12 6-12Q6.2-11.2 6.2-10L6.2-10Q6.2-8.85 6-8L6-8Q6.2-7.2 6.2-6L6.2-6Q6.2-4.85 6-4L6-4Q6.2-3.2 6.2-2L6.2-2Q6.2-0.85 6 0L6 0 2 0Q1.8-0.85 1.8-2L1.8-2Q1.8-3.2 2-4L2-4Q1.8-4.85 1.8-6L1.8-6Q1.8-7.2 2-8L2-8Q1.8-8.85 1.8-10L1.8-10Q1.8-11.2 2-12L2-12Q1.8-12.85 1.8-14L1.8-14Q1.8-15.2 2-16L2-16Q1.8-16.85 1.8-18L1.8-18Q1.8-19.2 2-20L2-20Q1.8-20.85 1.8-22L1.8-22Q1.8-23.2 2-24L2-24Q1.8-24.85 1.8-26L1.8-26Q1.8-27.2 2-28L2-28 16-28Q16.2-27.2 16.2-26L16.2-26Q16.2-24.85 16-24L16-24 18-24Q18.2-23.2 18.2-22L18.2-22Q18.2-20.85 18-20L18-20 17-20Q17.2-19.2 17.2-18L17.2-18Q17.2-16.85 17-16L17-16 14-16Q14.2-15.2 14.2-14L14.2-14Q14.2-12.85 14-12L14-12 15-12Q15.2-11.2 15.2-10L15.2-10Q15.2-8.85 15-8L15-8 16.5-8Q16.7-7.2 16.7-6L16.7-6Q16.7-4.85 16.5-4L16.5-4ZM13-16Q12.8-16.85 12.8-18L12.8-18Q12.8-19.2 13-20L13-20Q12.8-20.85 12.8-22L12.8-22Q12.8-23.2 13-24L13-24 6-24Q6.2-23.2 6.2-22L6.2-22Q6.2-20.85 6-20L6-20Q6.2-19.2 6.2-18L6.2-18Q6.2-16.85 6-16L6-16 13-16ZM38-4Q38.2-3.2 38.2-2L38.2-2Q38.2-0.85 38 0L38 0 24 0Q23.8-0.85 23.8-2L23.8-2Q23.8-3.2 24-4L24-4Q23.8-4.85 23.8-6L23.8-6Q23.8-7.2 24-8L24-8Q23.8-8.85 23.8-10L23.8-10Q23.8-11.2 24-12L24-12Q23.8-12.85 23.8-14L23.8-14Q23.8-15.2 24-16L24-16Q23.8-16.85 23.8-18L23.8-18Q23.8-19.2 24-20L24-20Q23.8-20.85 23.8-22L23.8-22Q23.8-23.2 24-24L24-24Q23.8-24.85 23.8-26L23.8-26Q23.8-27.2 24-28L24-28 28-28Q28.2-27.2 28.2-26L28.2-26Q28.2-24.85 28-24L28-24Q28.2-23.2 28.2-22L28.2-22Q28.2-20.85 28-20L28-20Q28.2-19.2 28.2-18L28.2-18Q28.2-16.85 28-16L28-16Q28.2-15.2 28.2-14L28.2-14Q28.2-12.85 28-12L28-12Q28.2-11.2 28.2-10L28.2-10Q28.2-8.85 28-8L28-8Q28.2-7.2 28.2-6L28.2-6Q28.2-4.85 28-4L28-4 38-4Z"/></svg></g></svg></g></svg></g></svg></g></svg></g></svg></g><path data-fill-palette-color="tertiary" stroke="transparent" fill="#ffffff" d="M280.761 41.215L280.761 0 33.561 0 33.561 247.2 280.761 247.2 280.761 205.985 266.984 205.985 266.984 233.423 47.338 233.423 47.338 13.777 266.984 13.777 266.984 41.215Z"/></svg></g><defs/></svg><rect visibility="hidden" stroke="none" fill="none" height="247.2" width="395.52"/></g></svg></g></svg>